<?xml version="1.0" encoding="UTF-8"?><svg id="a" xmlns="http://www.w3.org/2000/svg" width="400" height="400" viewBox="0 0 400 400"><rect width="400" height="400" fill="#fff"/><circle cx="56.38" cy="258.44" r="31.01" fill="#ec6663"/><circle cx="56.38" cy="181.81" r="31.01" fill="#123b5c"/><circle cx="56.38" cy="105.18" r="31.01" fill="#b52b65"/><g><path d="M120.44,108.5c0-.9-.32-1.6-.95-2.09-.63-.49-1.78-.98-3.43-1.48-1.65-.5-2.97-1.05-3.95-1.66-1.87-1.17-2.8-2.71-2.8-4.59,0-1.65,.67-3.02,2.02-4.09,1.35-1.07,3.1-1.61,5.25-1.61,1.43,0,2.7,.26,3.82,.79,1.12,.53,2,1.28,2.64,2.25,.64,.97,.96,2.05,.96,3.23h-3.55c0-1.07-.34-1.91-1.01-2.52s-1.63-.91-2.88-.91c-1.17,0-2.07,.25-2.71,.75-.64,.5-.97,1.19-.97,2.09,0,.75,.35,1.38,1.04,1.88,.7,.5,1.84,.99,3.44,1.47,1.6,.47,2.88,1.01,3.85,1.62,.97,.61,1.68,1.3,2.13,2.09,.45,.78,.68,1.7,.68,2.76,0,1.71-.66,3.07-1.97,4.08-1.31,1.01-3.09,1.52-5.33,1.52-1.48,0-2.85-.27-4.09-.82-1.25-.55-2.21-1.31-2.9-2.28-.69-.97-1.04-2.1-1.04-3.38h3.57c0,1.17,.39,2.07,1.16,2.71s1.87,.96,3.31,.96c1.24,0,2.17-.25,2.8-.75,.62-.5,.94-1.17,.94-1.99Z" fill="#231f20"/><path d="M140.15,106.31c0,2.36-.54,4.24-1.61,5.64-1.07,1.4-2.51,2.11-4.31,2.11-1.67,0-3.01-.55-4.02-1.65v7.23h-3.42v-21.11h3.16l.14,1.55c1.01-1.22,2.37-1.83,4.1-1.83,1.86,0,3.32,.69,4.38,2.08,1.06,1.39,1.59,3.31,1.59,5.77v.21Zm-3.41-.3c0-1.52-.3-2.73-.91-3.62s-1.47-1.34-2.6-1.34c-1.4,0-2.41,.58-3.02,1.73v6.77c.62,1.18,1.63,1.78,3.04,1.78,1.09,0,1.94-.44,2.56-1.32s.92-2.21,.92-4Z" fill="#231f20"/><path d="M142.41,106.02c0-1.49,.3-2.84,.89-4.04,.59-1.2,1.42-2.12,2.49-2.76,1.07-.64,2.3-.97,3.69-.97,2.06,0,3.73,.66,5.01,1.99s1.98,3.08,2.08,5.27v.8c.01,1.5-.27,2.85-.85,4.03-.58,1.18-1.4,2.1-2.48,2.75-1.08,.65-2.32,.97-3.73,.97-2.15,0-3.87-.72-5.17-2.15-1.29-1.43-1.94-3.34-1.94-5.73v-.17Zm3.42,.3c0,1.57,.32,2.8,.97,3.69,.65,.89,1.55,1.33,2.71,1.33s2.06-.45,2.7-1.35c.64-.9,.97-2.22,.97-3.96,0-1.54-.33-2.76-.99-3.66-.66-.9-1.56-1.35-2.7-1.35s-2.01,.44-2.66,1.33c-.66,.89-.99,2.22-.99,3.98Z" fill="#231f20"/><path d="M163.77,94.83v3.71h2.69v2.54h-2.69v8.51c0,.58,.11,1,.35,1.26,.23,.26,.64,.39,1.23,.39,.39,0,.79-.05,1.2-.14v2.65c-.78,.22-1.53,.32-2.25,.32-2.63,0-3.95-1.45-3.95-4.35v-8.64h-2.51v-2.54h2.51v-3.71h3.42Z" fill="#231f20"/><path d="M173.37,94.83v3.71h2.69v2.54h-2.69v8.51c0,.58,.11,1,.35,1.26,.23,.26,.64,.39,1.23,.39,.39,0,.79-.05,1.2-.14v2.65c-.78,.22-1.53,.32-2.25,.32-2.63,0-3.95-1.45-3.95-4.35v-8.64h-2.51v-2.54h2.51v-3.71h3.42Z" fill="#231f20"/><path d="M182.32,113.78h-3.42v-21.65h3.42v21.65Z" fill="#231f20"/><path d="M191.38,108.88l3.1-10.34h3.65l-6.06,17.56c-.93,2.56-2.51,3.85-4.74,3.85-.5,0-1.05-.08-1.65-.25v-2.66l.65,.04c.86,0,1.52-.16,1.95-.47s.78-.84,1.04-1.58l.49-1.31-5.36-15.17h3.69l3.23,10.34Z" fill="#231f20"/></g><g><path d="M123.69,189.87c-.74,.97-1.77,1.7-3.09,2.2-1.32,.5-2.81,.75-4.48,.75s-3.24-.39-4.57-1.17c-1.32-.78-2.35-1.9-3.07-3.35-.72-1.45-1.09-3.15-1.12-5.08v-1.61c0-3.1,.74-5.52,2.23-7.27,1.48-1.74,3.56-2.61,6.22-2.61,2.28,0,4.1,.57,5.44,1.7,1.34,1.13,2.15,2.76,2.42,4.88h-3.5c-.39-2.47-1.83-3.71-4.3-3.71-1.6,0-2.81,.58-3.64,1.73-.83,1.15-1.26,2.84-1.29,5.06v1.58c0,2.22,.47,3.94,1.4,5.16,.93,1.22,2.23,1.84,3.9,1.84,1.82,0,3.12-.41,3.89-1.24v-4.02h-4.23v-2.71h7.78v7.86Z" fill="#231f20"/><path d="M135.26,180.41c-.45-.08-.92-.11-1.4-.11-1.57,0-2.63,.6-3.17,1.8v10.43h-3.42v-15.25h3.27l.08,1.71c.83-1.33,1.97-1.99,3.44-1.99,.49,0,.89,.07,1.21,.2v3.21Z" fill="#231f20"/><path d="M146.66,191.04c-1.01,1.18-2.43,1.78-4.28,1.78-1.65,0-2.91-.48-3.76-1.45-.85-.97-1.28-2.37-1.28-4.2v-9.88h3.42v9.84c0,1.94,.8,2.9,2.41,2.9s2.79-.6,3.37-1.79v-10.95h3.42v15.25h-3.23l-.08-1.49Z" fill="#231f20"/><path d="M166.81,185.07c0,2.36-.54,4.24-1.61,5.64-1.07,1.4-2.51,2.11-4.31,2.11-1.67,0-3.01-.55-4.02-1.65v7.23h-3.42v-21.11h3.16l.14,1.55c1.01-1.22,2.37-1.83,4.1-1.83,1.86,0,3.32,.69,4.38,2.08,1.06,1.39,1.59,3.31,1.59,5.77v.21Zm-3.41-.3c0-1.52-.3-2.73-.91-3.62s-1.47-1.34-2.6-1.34c-1.4,0-2.41,.58-3.02,1.73v6.76c.62,1.18,1.63,1.78,3.04,1.78,1.09,0,1.94-.44,2.56-1.32,.62-.88,.92-2.21,.92-4Z" fill="#231f20"/><path d="M169.07,184.77c0-1.49,.3-2.84,.89-4.04,.59-1.2,1.42-2.12,2.49-2.76,1.07-.64,2.3-.96,3.69-.96,2.06,0,3.73,.66,5.01,1.99,1.28,1.32,1.98,3.08,2.08,5.27v.8c.01,1.5-.27,2.85-.85,4.03-.58,1.18-1.4,2.1-2.48,2.75-1.08,.65-2.32,.97-3.73,.97-2.15,0-3.87-.72-5.17-2.15-1.29-1.43-1.94-3.34-1.94-5.73v-.17Zm3.42,.3c0,1.57,.32,2.8,.97,3.69,.65,.89,1.55,1.33,2.71,1.33s2.06-.45,2.7-1.35,.97-2.22,.97-3.96c0-1.54-.33-2.76-.99-3.67-.66-.9-1.56-1.35-2.7-1.35s-2.01,.44-2.66,1.33c-.66,.89-.99,2.21-.99,3.98Z" fill="#231f20"/><path d="M195.25,192.54c-.15-.29-.28-.77-.39-1.42-1.09,1.14-2.42,1.71-4,1.71s-2.78-.44-3.75-1.31c-.97-.87-1.45-1.95-1.45-3.24,0-1.63,.6-2.87,1.81-3.74,1.21-.87,2.93-1.3,5.18-1.3h2.1v-1c0-.79-.22-1.42-.66-1.9-.44-.47-1.11-.71-2.02-.71-.78,0-1.42,.19-1.92,.58-.5,.39-.75,.89-.75,1.49h-3.42c0-.84,.28-1.62,.83-2.35,.55-.73,1.31-1.3,2.26-1.71s2.02-.62,3.19-.62c1.79,0,3.21,.45,4.27,1.35,1.06,.9,1.61,2.16,1.63,3.78v6.88c0,1.37,.19,2.47,.58,3.28v.24h-3.5Zm-3.76-2.47c.68,0,1.31-.16,1.91-.49s1.05-.77,1.35-1.33v-2.88h-1.85c-1.27,0-2.22,.22-2.86,.66-.64,.44-.96,1.07-.96,1.87,0,.66,.22,1.18,.66,1.57,.44,.39,1.02,.58,1.75,.58Z" fill="#231f20"/><path d="M204.94,177.29l.1,1.76c1.13-1.36,2.61-2.04,4.44-2.04,3.18,0,4.79,1.82,4.85,5.45v10.08h-3.42v-9.88c0-.97-.21-1.68-.63-2.15-.42-.46-1.1-.7-2.05-.7-1.38,0-2.41,.62-3.09,1.87v10.85h-3.42v-15.25h3.23Z" fill="#231f20"/></g><g><path d="M120.94,265.51h-7.95l-1.66,4.78h-3.71l7.75-20.52h3.2l7.77,20.52h-3.72l-1.68-4.78Zm-6.95-2.88h5.95l-2.97-8.51-2.97,8.51Z" fill="#231f20"/><path d="M136.32,258.17c-.45-.08-.92-.11-1.4-.11-1.57,0-2.63,.6-3.17,1.8v10.43h-3.42v-15.25h3.27l.08,1.71c.83-1.33,1.97-1.99,3.44-1.99,.49,0,.89,.07,1.21,.2v3.21Z" fill="#231f20"/><path d="M143.48,251.34v3.71h2.69v2.54h-2.69v8.51c0,.58,.11,1,.35,1.26,.23,.26,.64,.39,1.23,.39,.39,0,.79-.05,1.2-.14v2.65c-.78,.22-1.53,.32-2.25,.32-2.63,0-3.95-1.45-3.95-4.35v-8.64h-2.51v-2.54h2.51v-3.71h3.42Z" fill="#231f20"/><path d="M155.5,270.57c-2.17,0-3.93-.68-5.28-2.05-1.35-1.37-2.02-3.19-2.02-5.46v-.42c0-1.52,.29-2.88,.88-4.08,.59-1.2,1.41-2.13,2.47-2.8,1.06-.67,2.25-1,3.55-1,2.08,0,3.68,.66,4.81,1.99,1.13,1.32,1.7,3.2,1.7,5.62v1.38h-9.96c.1,1.26,.52,2.25,1.26,2.99,.74,.73,1.67,1.1,2.78,1.1,1.57,0,2.85-.63,3.83-1.9l1.85,1.76c-.61,.91-1.43,1.62-2.45,2.12-1.02,.5-2.16,.75-3.43,.75Zm-.41-13.06c-.94,0-1.7,.33-2.28,.99-.58,.66-.95,1.57-1.11,2.75h6.53v-.25c-.08-1.15-.38-2.01-.92-2.6-.54-.59-1.28-.88-2.23-.88Z" fill="#231f20"/><path d="M167.49,255.04l.1,1.59c1.07-1.25,2.54-1.87,4.4-1.87,2.04,0,3.43,.78,4.19,2.34,1.11-1.56,2.67-2.34,4.68-2.34,1.68,0,2.93,.46,3.76,1.4,.82,.93,1.24,2.3,1.26,4.12v10.02h-3.42v-9.92c0-.97-.21-1.68-.63-2.13-.42-.45-1.12-.68-2.1-.68-.78,0-1.42,.21-1.91,.63s-.84,.97-1.04,1.64v10.46h-3.41v-10.04c-.05-1.79-.96-2.69-2.75-2.69-1.37,0-2.34,.56-2.92,1.68v11.05h-3.42v-15.25h3.23Z" fill="#231f20"/><path d="M189.4,251.08c0-.53,.17-.96,.5-1.31,.33-.35,.81-.52,1.43-.52s1.1,.17,1.44,.52c.34,.35,.51,.78,.51,1.31s-.17,.95-.51,1.29c-.34,.34-.82,.51-1.44,.51s-1.1-.17-1.43-.51c-.33-.34-.5-.77-.5-1.29Zm3.64,19.21h-3.42v-15.25h3.42v15.25Z" fill="#231f20"/><path d="M196.12,262.53c0-1.49,.3-2.84,.89-4.04,.59-1.2,1.42-2.12,2.49-2.76,1.07-.64,2.3-.96,3.69-.96,2.06,0,3.73,.66,5.01,1.99,1.28,1.32,1.98,3.08,2.08,5.27v.8c.01,1.5-.28,2.85-.85,4.03-.58,1.18-1.4,2.1-2.48,2.75-1.08,.65-2.32,.97-3.73,.97-2.15,0-3.87-.72-5.17-2.15-1.29-1.43-1.94-3.34-1.94-5.73v-.17Zm3.42,.3c0,1.57,.32,2.8,.97,3.69s1.55,1.33,2.71,1.33,2.05-.45,2.7-1.35c.64-.9,.96-2.22,.96-3.96,0-1.54-.33-2.76-.99-3.67-.66-.9-1.56-1.35-2.7-1.35s-2.01,.44-2.66,1.33c-.66,.89-.99,2.21-.99,3.98Z" fill="#231f20"/></g><rect x="353.64" y="28.09" width="3.95" height="22.87" fill="#231f20"/><rect x="353.64" y="28.09" width="3.95" height="22.87" transform="translate(316.09 395.14) rotate(-90)" fill="#231f20"/><path d="M77.92,112.42H34.85c.69-7.3,4.86-13.54,11.02-16.87l-3.57-6.19c-.2-.35-.08-.79,.26-.99s.79-.08,.99,.26l3.62,6.27c2.76-1.26,5.87-1.96,9.21-1.96s6.45,.7,9.21,1.96l3.62-6.27c.2-.35,.64-.46,.98-.26s.46,.64,.26,.99l-3.57,6.19c6.17,3.34,10.34,9.57,11.03,16.87h0Zm-11.65-6.05c1,0,1.81-.81,1.81-1.81,0-.99-.81-1.81-1.81-1.81s-1.81,.81-1.81,1.81,.81,1.81,1.81,1.81Zm-19.77,0c1,0,1.81-.81,1.81-1.81,0-.99-.81-1.81-1.81-1.81s-1.81,.81-1.81,1.81,.81,1.81,1.81,1.81Z" fill="#fff"/><path d="M77.92,190.79H34.85c.69-7.3,4.86-13.54,11.02-16.87l-3.57-6.19c-.2-.35-.08-.79,.26-.99s.79-.08,.99,.26l3.62,6.27c2.76-1.26,5.87-1.96,9.21-1.96s6.45,.7,9.21,1.96l3.62-6.27c.2-.35,.64-.46,.98-.26s.46,.64,.26,.99l-3.57,6.19c6.17,3.34,10.34,9.57,11.03,16.87h0Zm-11.65-6.05c1,0,1.81-.81,1.81-1.81,0-.99-.81-1.81-1.81-1.81s-1.81,.81-1.81,1.81,.81,1.81,1.81,1.81Zm-19.77,0c1,0,1.81-.81,1.81-1.81,0-.99-.81-1.81-1.81-1.81s-1.81,.81-1.81,1.81,.81,1.81,1.81,1.81Z" fill="#fff"/><path d="M77.92,269.75H34.85c.69-7.3,4.86-13.54,11.02-16.87l-3.57-6.19c-.2-.35-.08-.79,.26-.99s.79-.08,.99,.26l3.62,6.27c2.76-1.26,5.87-1.96,9.21-1.96s6.45,.7,9.21,1.96l3.62-6.27c.2-.35,.64-.46,.98-.26s.46,.64,.26,.99l-3.57,6.19c6.17,3.34,10.34,9.57,11.03,16.87h0Zm-11.65-6.05c1,0,1.81-.81,1.81-1.81,0-.99-.81-1.81-1.81-1.81s-1.81,.81-1.81,1.81,.81,1.81,1.81,1.81Zm-19.77,0c1,0,1.81-.81,1.81-1.81,0-.99-.81-1.81-1.81-1.81s-1.81,.81-1.81,1.81,.81,1.81,1.81,1.81Z" fill="#fff"/></svg>